# xmcd
# 
# Track frame offsets:
#     150
#     38848
#     64820
#     81706
#     100778
#     124558
#     150071
#     177322
# 
# Disc length: 2771
# 
# Revision: 2
# Processed by: cddbd v1.5.2PL0 Copyright (c) Steve Scherf et al.
# Submitted via: BonkEnc v1.0.8
# 
DISCID=5c0ad108
DTITLE=Franz Koglmann - [with Tony Coe/Tom Varner/Brad Shepik/Peter Herbert] Make Believe
DYEAR=1999
DGENRE=Contemporary Jazz
TTITLE0=Make Believe
TTITLE1=Lotrecht in die Tiefe
TTITLE2=Rue Montmartre Trilogy - L'écrevisse
TTITLE3=Rue Montmartre Trilogy - Interlude
TTITLE4=Rue Montmartre Trilogy - Rue Montmartre
TTITLE5=Eye, Ear, Nose
TTITLE6=Der Vogel
TTITLE7=Blut (Lullaby)
EXTD=YEAR: 1999
EXTT0=
EXTT1=
EXTT2=
EXTT3=
EXTT4=
EXTT5=
EXTT6=
EXTT7=
PLAYORDER=
